<?xml version="1.0" encoding="utf-8"?>
<!-- Generator: Adobe Illustrator 23.0.5, SVG Export Plug-In . SVG Version: 6.00 Build 0)  -->
<svg version="1.1" id="Capa_1" xmlns="http://www.w3.org/2000/svg" xmlns:xlink="http://www.w3.org/1999/xlink" x="0px" y="0px"
	 viewBox="0 0 1000 1000" style="enable-background:new 0 0 1000 1000;" xml:space="preserve">
<style type="text/css">
	.st0{fill:#E88024;}
	.st1{fill:#666766;}
</style>
<circle class="st0" cx="907.65" cy="693.15" r="34.51"/>
<path class="st1" d="M440.41,389.62c-37.67-38.63-83.1-57.94-136.31-57.94c-29.95,0-57.48,6.17-82.58,18.51
	c-25.13,12.34-47.82,30.96-68.08,55.86V196.09H105v531.99h48.43v-79.55c19.11,26.29,41.1,46,66.01,59.15
	c24.88,13.15,52.63,19.72,83.28,19.72c53.44,0,99.16-19.26,137.18-57.77c38.02-38.51,57.02-84.98,57.02-139.4
	C496.9,475.11,478.08,428.24,440.41,389.62z M427.61,604.94c-13.46,23.98-31.59,42.6-54.36,55.86
	c-22.77,13.26-47.62,19.89-74.54,19.89c-41.88,0-77.14-14.64-105.79-43.93c-28.62-29.29-42.95-65.72-42.95-109.3
	c0-28.59,6.37-54.31,19.14-77.14c12.77-22.83,31.07-40.99,54.88-54.48c23.81-13.49,48.94-20.23,75.41-20.23
	c26,0,50.44,6.74,73.33,20.23c22.89,13.49,41.13,32.34,54.71,56.55c13.55,24.21,20.35,49.69,20.35,76.44
	C447.79,555.59,441.04,580.96,427.61,604.94z"/>
<g>
	<path class="st1" d="M515.57,194.8h49.49v217.4c20.03-26.39,42.07-46.13,66.1-59.21c24.04-13.08,50.08-19.62,78.12-19.62
		c28.75,0,54.26,7.31,76.53,21.92s38.71,34.23,49.31,58.86s15.91,63.22,15.91,115.77v197.96h-49.49V544.42
		c0-44.31-1.77-73.88-5.3-88.73c-6.13-25.45-17.26-44.6-33.41-57.44c-16.14-12.84-37.29-19.27-63.45-19.27
		c-29.93,0-56.74,9.9-80.42,29.69c-23.68,19.8-39.3,44.31-46.84,73.53c-4.71,18.85-7.07,53.73-7.07,104.64v141.05h-49.49V194.8z"/>
</g>
</svg>
